<?xml version="1.0" encoding="UTF-8"?>
<svg id="_Шар_2" data-name="Шар_2" xmlns="http://www.w3.org/2000/svg" viewBox="0 0 2000 2000">
  <defs>
    <style>
      .cls-1 {
        fill: #fff;
      }

      .cls-2 {
        fill: #0e0e0e;
      }
    </style>
  </defs>
  <rect class="cls-2" width="2000" height="2000"/>
  <g>
    <path class="cls-1" d="M898.45,397.75H382.67c-89.35,0-145.2,96.71-100.52,174.09,71.03,123.03,162.07,280.72,211.44,366.25,22.13,38.33,22.12,85.51,0,123.84-49.45,85.65-140.67,243.63-211.74,366.74-44.55,77.15,11.14,173.58,100.23,173.58h511.7c332.47,0,608.12-272.02,606.91-604.48-1.21-331.59-270.38-600.02-602.23-600.02ZM894.91,1369.1h-241.2c-30.34,0-49.3-32.84-34.13-59.11l143.5-248.55c21.95-38.01,21.95-84.85,0-122.87l-143.8-249.08c-15.04-26.05,3.76-58.61,33.84-58.61h245.32c203.89,0,369.19,165.35,369.09,369.29-.1,204.35-168.27,368.92-372.63,368.92Z"/>
    <circle class="cls-1" cx="1617.26" cy="1485.68" r="116.58"/>
  </g>
</svg>